<svg xmlns="http://www.w3.org/2000/svg" viewBox="0 0 362 362">
  <title>shop</title>
  <g id="Layer_2" data-name="Layer 2">
    <g id="Layer_1-2" data-name="Layer 1">
      <g>
        <path d="M133.05,230.67H265.38a7.25,7.25,0,0,0,7-5L301.72,130a6.45,6.45,0,0,0-1.19-6,7.53,7.53,0,0,0-5.85-2.72H116.15l-5.24-22A7.22,7.22,0,0,0,103.76,94H59.32a6.85,6.85,0,1,0,0,13.67H97.88l26.45,111c-7.78,3.15-13.25,10.38-13.25,18.79,0,11.3,9.86,20.5,22,20.5H265.38a6.85,6.85,0,1,0,0-13.67H133.05a6.85,6.85,0,1,1,0-13.66Z" style="fill: #f79b5c"/>
        <path d="M125.73,278.5c0,11.31,9.86,20.5,22,20.5s22-9.19,22-20.5-9.86-20.5-22-20.5S125.73,267.2,125.73,278.5Z" style="fill: #f79b5c"/>
        <path d="M228.76,278.5c0,11.31,9.86,20.5,22,20.5s22-9.19,22-20.5-9.86-20.5-22-20.5S228.76,267.2,228.76,278.5Z" style="fill: #f79b5c"/>
      </g>
      <path d="M181,0A181,181,0,1,0,362,181,181,181,0,0,0,181,0Zm0,353A172,172,0,1,1,353,181,172,172,0,0,1,181,353Z" style="fill: #f79b5c"/>
    </g>
  </g>
</svg>
