<svg xmlns="http://www.w3.org/2000/svg" viewBox="0 0 362 362">
  <title>question</title>
  <g id="Layer_2" data-name="Layer 2">
    <g id="Capa_1" data-name="Capa 1">
      <g>
        <ellipse cx="180" cy="273.63" rx="25.77" ry="24.38" style="fill: #f79b5c"/>
        <path d="M180,90c-36.94,0-67,28.43-67,63.38v6.09h51.54v-6.09c0-8.07,6.93-14.63,15.46-14.63s15.46,6.56,15.46,14.63A14.33,14.33,0,0,1,190,164.54l-35.76,28.75v43.77h51.54V215.83l17.6-14.15c15-12.07,23.63-29.68,23.63-48.3C247,118.43,216.94,90,180,90Z" style="fill: #f79b5c"/>
      </g>
      <path d="M181,0A181,181,0,1,0,362,181,181,181,0,0,0,181,0Zm0,353A172,172,0,1,1,353,181,172,172,0,0,1,181,353Z" style="fill: #f79b5c"/>
    </g>
  </g>
</svg>
